<svg width="54" height="54" viewBox="0 0 54 54" fill="none" xmlns="http://www.w3.org/2000/svg">
<g clip-path="url(#clip0_3_2799)">
<path d="M27 54C41.9117 54 54 41.9117 54 27C54 12.0883 41.9117 0 27 0C12.0883 0 0 12.0883 0 27C0 41.9117 12.0883 54 27 54Z" fill="#1A83F9" fill-opacity="0.2"/>
<path d="M27 35C31.4183 35 35 31.4183 35 27C35 22.5817 31.4183 19 27 19C22.5817 19 19 22.5817 19 27C19 31.4183 22.5817 35 27 35Z" fill="white"/>
<g filter="url(#filter0_d_3_2799)">
<path d="M27 33C30.3137 33 33 30.3137 33 27C33 23.6863 30.3137 21 27 21C23.6863 21 21 23.6863 21 27C21 30.3137 23.6863 33 27 33Z" fill="#1A83F9"/>
</g>
</g>
<defs>
<filter id="filter0_d_3_2799" x="19" y="21" width="16" height="16" filterUnits="userSpaceOnUse" color-interpolation-filters="sRGB">
<feFlood flood-opacity="0" result="BackgroundImageFix"/>
<feColorMatrix in="SourceAlpha" type="matrix" values="0 0 0 0 0 0 0 0 0 0 0 0 0 0 0 0 0 0 127 0" result="hardAlpha"/>
<feOffset dy="2"/>
<feGaussianBlur stdDeviation="1"/>
<feColorMatrix type="matrix" values="0 0 0 0 0 0 0 0 0 0 0 0 0 0 0 0 0 0 0.349 0"/>
<feBlend mode="normal" in2="BackgroundImageFix" result="effect1_dropShadow_3_2799"/>
<feBlend mode="normal" in="SourceGraphic" in2="effect1_dropShadow_3_2799" result="shape"/>
</filter>
<clipPath id="clip0_3_2799">
<rect width="54" height="54" fill="white"/>
</clipPath>
</defs>
</svg>
